<svg width="662" height="110" viewBox="0 0 662 110" fill="none" xmlns="http://www.w3.org/2000/svg">
<path d="M105.882 55.829C104.116 55.1868 102.724 54.0094 101.707 52.2969C100.691 50.5844 100.182 48.7114 100.182 46.6777C100.182 46.3566 100.289 45.2061 100.503 43.226C101.306 31.9876 102.51 21.1506 104.116 10.7149C104.704 6.86177 105.614 4.4803 106.845 3.57053C108.076 2.60724 110.564 2.1256 114.311 2.1256H175.8C178.583 6.7815 179.975 12.8823 179.975 20.4281C179.975 27.9739 178.369 33.9944 175.158 38.4898C171.84 36.4562 168.656 34.931 165.606 33.9142C160.843 32.4157 155.732 31.6665 150.273 31.6665H141.283L140.801 35.2788H148.266C159.344 35.2788 168.335 38.1419 175.239 43.8681C182.784 50.183 186.557 59.0667 186.557 70.5192C186.557 81.9716 182.329 91.0961 173.874 97.8926C165.418 104.689 153.832 108.087 139.115 108.087C126.004 108.087 115.729 105.278 108.29 99.6587C100.851 93.986 97.1318 86.8683 97.1318 78.3058C97.1318 71.5092 99.3795 66.1844 103.875 62.3312C108.424 58.478 113.749 56.5515 119.849 56.5515C125.95 56.5515 131.088 58.2907 135.262 61.7693C139.971 65.783 142.487 71.1346 142.808 77.8241C145.27 77.8241 146.5 76.6735 146.5 74.3723C146.5 68.6996 144.172 63.7226 139.517 59.4413C134.861 55.1065 128.332 52.9391 119.93 52.9391C114.846 52.9391 110.163 53.9024 105.882 55.829Z" fill="white"/>
<path d="M39.6554 57.595H48.2448V46.8383H46.4787C44.4986 50.6379 42.2242 53.7151 39.6554 56.0698V57.595ZM40.4582 93.3973H46.9604C48.6729 93.3973 49.9038 93.2635 50.653 92.9959C51.4022 92.6748 51.7768 92.1664 51.7768 91.4707C51.7768 90.7215 51.6698 90.1061 51.4557 89.6244H27.1327C18.142 89.6244 11.2651 86.8148 6.50221 81.1956C2.1674 76.1651 0 69.3686 0 60.806C0 56.3642 0.374613 52.4842 1.12384 49.1662C9.04422 42.3697 16.4027 34.6366 23.1992 25.967C26.9454 21.1506 32.4843 13.0429 39.816 1.64395H60.2859C66.9754 1.64395 72.434 3.4635 76.6618 7.10259C80.8896 10.6882 83.0035 15.6117 83.0035 21.873V52.5378H81.3177C79.0165 52.5378 77.8659 53.4475 77.8659 55.2671V56.3106H90.7901C92.6631 61.0201 93.5996 66.3984 93.5996 72.4457C93.5996 76.62 92.7166 80.2859 90.9506 83.4433C89.1846 86.5472 86.5088 88.5006 82.9232 89.3033V101.585C76.9294 105.92 69.678 108.087 61.1689 108.087C52.7134 108.087 45.8098 106.081 40.4582 102.067V93.3973Z" fill="white"/>
<path d="M641.116 107.529V87.3591H661.286V107.529H641.116Z" fill="white"/>
<path d="M607.76 109.101C601.124 109.101 595.58 107.922 591.127 105.564C586.674 103.207 583.312 99.5833 581.042 94.6936C578.772 89.7166 577.506 83.2989 577.244 75.4405L597.283 72.4282C597.37 76.9686 597.763 80.6358 598.461 83.4299C599.247 86.224 600.295 88.2322 601.605 89.4547C603.002 90.6771 604.661 91.2883 606.582 91.2883C609.026 91.2883 610.598 90.4588 611.297 88.7998C612.082 87.1408 612.475 85.3945 612.475 83.5609C612.475 79.1951 611.428 75.5279 609.332 72.5591C607.236 69.5031 604.399 66.4471 600.819 63.391L591.651 55.4016C587.634 51.9963 584.229 48.1545 581.435 43.876C578.728 39.5102 577.375 34.1403 577.375 27.7663C577.375 18.7728 580.038 11.9186 585.364 7.20353C590.69 2.40118 597.937 0 607.106 0C612.781 0 617.321 0.96047 620.727 2.88141C624.219 4.80235 626.839 7.3345 628.585 10.4778C630.419 13.5339 631.641 16.8082 632.252 20.3008C632.951 23.7061 633.344 26.9805 633.431 30.1238L613.261 32.6123C613.174 29.469 612.956 26.7622 612.606 24.492C612.344 22.1345 611.733 20.3445 610.773 19.1221C609.812 17.8123 608.328 17.1575 606.32 17.1575C604.137 17.1575 602.521 18.0743 601.474 19.9079C600.513 21.7415 600.033 23.5752 600.033 25.4088C600.033 29.338 600.95 32.5687 602.783 35.1008C604.704 37.5456 607.193 40.1214 610.249 42.8282L619.024 50.5556C623.652 54.4848 627.537 58.9379 630.681 63.9149C633.911 68.8919 635.527 75.0476 635.527 82.3821C635.527 87.3591 634.392 91.8995 632.121 96.0033C629.851 100.02 626.621 103.207 622.429 105.564C618.326 107.922 613.436 109.101 607.76 109.101Z" fill="white"/>
<path d="M537.174 109.101C529.228 109.101 522.942 107.704 518.314 104.91C513.686 102.115 510.368 98.0989 508.36 92.86C506.352 87.621 505.348 81.378 505.348 74.1308V34.7079C505.348 27.3734 506.352 21.1303 508.36 15.9787C510.368 10.8271 513.686 6.89792 518.314 4.19114C522.942 1.39705 529.228 0 537.174 0C545.207 0 551.538 1.39705 556.165 4.19114C560.88 6.89792 564.242 10.8271 566.25 15.9787C568.258 21.1303 569.263 27.3734 569.263 34.7079V74.1308C569.263 81.378 568.258 87.621 566.25 92.86C564.242 98.0989 560.88 102.115 556.165 104.91C551.538 107.704 545.207 109.101 537.174 109.101ZM537.174 92.4671C539.619 92.4671 541.409 91.8558 542.544 90.6334C543.679 89.411 544.421 87.8393 544.771 85.9184C545.12 83.9975 545.294 82.0329 545.294 80.0246V28.9451C545.294 26.8495 545.12 24.8849 544.771 23.0513C544.421 21.1303 543.679 19.5587 542.544 18.3362C541.409 17.1138 539.619 16.5026 537.174 16.5026C534.904 16.5026 533.201 17.1138 532.066 18.3362C530.931 19.5587 530.189 21.1303 529.84 23.0513C529.49 24.8849 529.316 26.8495 529.316 28.9451V80.0246C529.316 82.0329 529.447 83.9975 529.709 85.9184C530.058 87.8393 530.756 89.411 531.804 90.6334C532.939 91.8558 534.729 92.4671 537.174 92.4671Z" fill="white"/>
<path d="M471.454 107.529V1.44069L494.898 1.44069V107.529H471.454Z" fill="white"/>
<path d="M398.51 107.529V1.44069L425.36 1.44069C434.615 1.44069 441.819 2.61945 446.97 4.97697C452.122 7.24717 455.746 10.8708 457.841 15.8477C459.937 20.7374 460.984 27.1114 460.984 34.9698V73.4759C460.984 81.4216 459.937 87.9266 457.841 92.9909C455.746 97.9679 452.122 101.635 446.97 103.993C441.906 106.35 434.79 107.529 425.622 107.529H398.51ZM421.954 91.2883H425.622C429.202 91.2883 431.777 90.7644 433.349 89.7166C434.921 88.6688 435.881 87.0971 436.231 85.0016C436.667 82.906 436.885 80.2865 436.885 77.1432V30.9097C436.885 27.7663 436.623 25.2341 436.1 23.3132C435.663 21.3923 434.659 19.9952 433.087 19.1221C431.515 18.2489 428.983 17.8123 425.491 17.8123H421.954V91.2883Z" fill="white"/>
<path d="M356.089 109.101C347.969 109.101 341.595 107.791 336.967 105.171C332.427 102.465 329.24 98.5791 327.406 93.5148C325.573 88.3632 324.656 82.0765 324.656 74.6547V1.44069L347.838 1.44069V78.191C347.838 80.3738 348.013 82.5567 348.362 84.7396C348.711 86.9225 349.453 88.7125 350.588 90.1095C351.811 91.5066 353.644 92.2051 356.089 92.2051C358.621 92.2051 360.455 91.5066 361.59 90.1095C362.725 88.7125 363.424 86.9225 363.686 84.7396C364.035 82.5567 364.21 80.3738 364.21 78.191V1.44069L387.523 1.44069V74.6547C387.523 82.0765 386.562 88.3632 384.641 93.5148C382.808 98.5791 379.621 102.465 375.08 105.171C370.54 107.791 364.21 109.101 356.089 109.101Z" fill="white"/>
<path d="M280.608 107.529V18.8601H264.629V1.44069L320.031 1.44069V18.8601H304.183V107.529H280.608Z" fill="white"/>
<path d="M235.858 109.101C229.222 109.101 223.678 107.922 219.224 105.564C214.771 103.207 211.41 99.5833 209.14 94.6936C206.869 89.7166 205.603 83.2989 205.341 75.4405L225.38 72.4282C225.468 76.9686 225.86 80.6358 226.559 83.4299C227.345 86.224 228.393 88.2322 229.702 89.4547C231.099 90.6771 232.758 91.2883 234.679 91.2883C237.124 91.2883 238.696 90.4588 239.394 88.7998C240.18 87.1408 240.573 85.3945 240.573 83.5609C240.573 79.1951 239.525 75.5279 237.43 72.5591C235.334 69.5031 232.496 66.4471 228.916 63.391L219.748 55.4016C215.732 51.9963 212.327 48.1545 209.532 43.876C206.826 39.5102 205.472 34.1403 205.472 27.7663C205.472 18.7728 208.135 11.9186 213.462 7.20353C218.788 2.40118 226.035 0 235.203 0C240.879 0 245.419 0.96047 248.824 2.88141C252.317 4.80235 254.936 7.3345 256.683 10.4778C258.516 13.5339 259.739 16.8082 260.35 20.3008C261.049 23.7061 261.441 26.9805 261.529 30.1238L241.359 32.6123C241.272 29.469 241.053 26.7622 240.704 24.492C240.442 22.1345 239.831 20.3445 238.87 19.1221C237.91 17.8123 236.426 17.1575 234.417 17.1575C232.234 17.1575 230.619 18.0743 229.571 19.9079C228.611 21.7415 228.131 23.5752 228.131 25.4088C228.131 29.338 229.047 32.5687 230.881 35.1008C232.802 37.5456 235.291 40.1214 238.347 42.8282L247.122 50.5556C251.749 54.4848 255.635 58.9379 258.778 63.9149C262.009 68.8919 263.624 75.0476 263.624 82.3821C263.624 87.3591 262.489 91.8995 260.219 96.0033C257.949 100.02 254.718 103.207 250.527 105.564C246.423 107.922 241.534 109.101 235.858 109.101Z" fill="white"/>
</svg>
